<svg id="Layer_1" data-name="Layer 1" xmlns="http://www.w3.org/2000/svg" viewBox="0 0 576 149.22"><defs><style>.cls-1{fill:#eee;}.cls-2{fill:#0097a7;}</style></defs><title>icon</title><path class="cls-1" d="M0,2.48H96.72V15.29H14.26V67H88V79.78H14.26v54.36H99.41v12.81H0Z"/><path class="cls-1" d="M229.62,146.95,198.41,99.82q-6.62.42-10.13.41H148.6v46.71H134.34V2.48h53.94q27.07,0,41.85,12.5t14.78,35.45q0,18-8.68,30t-24.8,16.74l34.72,49.81ZM188.28,87.42q20.67,0,31.83-9.4t11.16-27.18q0-17.36-11.16-26.45t-31.83-9.09H148.6V87.42Z"/><path class="cls-2" d="M374.08,74h28.32V130.2a98.13,98.13,0,0,1-27.7,13.74,99.61,99.61,0,0,1-31,5.27q-21.7,0-39.27-9.82a73,73,0,0,1-37.82-65,71.74,71.74,0,0,1,10.33-37.92A72.83,72.83,0,0,1,305.36,9.71,83.59,83.59,0,0,1,345.56,0a89,89,0,0,1,31.52,5.79,84,84,0,0,1,26.56,15.71L385.24,44.85a60,60,0,0,0-18.6-12,55,55,0,0,0-21.08-4.34,45,45,0,0,0-39.47,22.63,45.84,45.84,0,0,0-6,23.25,46.32,46.32,0,0,0,6.1,23.46,45,45,0,0,0,39.58,22.84,49.66,49.66,0,0,0,13.85-2.17,76.74,76.74,0,0,0,14.47-5.89Z"/><path class="cls-2" d="M537.76,9.71A72.52,72.52,0,0,1,576,74.4a73.16,73.16,0,0,1-38.24,65,84.27,84.27,0,0,1-78.95,0,72.85,72.85,0,0,1-38.23-65A72.7,72.7,0,0,1,458.71,9.71Q476.38,0,498.29,0A81,81,0,0,1,537.76,9.71ZM476.38,34.62a44.5,44.5,0,0,0-16.33,16.64,46,46,0,0,0-6,23.15,45.76,45.76,0,0,0,6.1,23.35,46.36,46.36,0,0,0,16.33,16.74,42.08,42.08,0,0,0,22.22,6.2,41.55,41.55,0,0,0,22-6.1,44.28,44.28,0,0,0,15.91-16.74,47.62,47.62,0,0,0,5.89-23.46,46.64,46.64,0,0,0-5.89-23.15,44.52,44.52,0,0,0-15.91-16.64,41.58,41.58,0,0,0-22-6.1A43.18,43.18,0,0,0,476.38,34.62Z"/></svg>